<?xml version="1.0" encoding="utf-8"?>
<!-- Generator: Adobe Illustrator 22.0.1, SVG Export Plug-In . SVG Version: 6.00 Build 0)  -->
<svg version="1.1" id="Layer_1" xmlns="http://www.w3.org/2000/svg" xmlns:xlink="http://www.w3.org/1999/xlink" x="0px" y="0px"
	 viewBox="0 0 512 512" style="enable-background:new 0 0 512 512;" xml:space="preserve">
<style type="text/css">
	.st0{fill:#35216D;}
	.st1{fill:#EDF3FC;}
	.st2{fill:#330D84;}
	.st3{fill:#FFBE1B;}
	.st4{fill:#0061F3;}
	.st5{fill:#8C7BFD;}
	.st6{fill:#FFFFFF;}
	.st7{fill:#5932AE;}
	.st8{fill:#1C46C4;}
	.st9{fill:#6857E5;}
	.st10{fill:#5D8EF9;}
	.st11{fill:#8AC9F9;}
	.st12{fill:#FFE37B;}
	.st13{fill:#FFD000;}
	.st14{fill:#2EF39E;}
	.st15{fill:#330D84;stroke:#330D84;stroke-width:0.6306;stroke-linecap:round;stroke-linejoin:round;stroke-miterlimit:10;}
	.st16{fill:#FFFFFF;stroke:#FFFFFF;stroke-width:0.737;stroke-linecap:round;stroke-linejoin:round;stroke-miterlimit:10;}
	.st17{fill:none;}
	.st18{fill:#FDB813;}
</style>
<g>
	<g>
		<g>
			<path class="st1" d="M255.999,40.928c-118.778,0-215.071,96.294-215.071,215.074c0,118.776,96.292,215.068,215.071,215.068
				S471.07,374.778,471.07,256.002C471.07,137.222,374.777,40.928,255.999,40.928z"/>
		</g>
	</g>
	<g>
		<g>
			<path class="st1" d="M255.999,1C115.391,1,1,115.392,1,256.002C1,396.609,115.391,511,255.999,511S511,396.609,511,256.002
				C511,115.392,396.607,1,255.999,1z M255.999,502.831c-136.103,0-246.83-110.727-246.83-246.829
				c0-136.104,110.727-246.834,246.83-246.834c136.102,0,246.832,110.729,246.832,246.834
				C502.831,392.104,392.101,502.831,255.999,502.831z"/>
		</g>
	</g>
	<g>
		<path class="st3" d="M316.042,219.581c0.062,0.352,0.124,0.703,0.185,1.033C316.166,220.284,316.104,219.933,316.042,219.581z"/>
		<path class="st3" d="M315.804,218.166c0.057,0.352,0.114,0.701,0.171,1.035C315.918,218.867,315.861,218.518,315.804,218.166z"/>
		<path class="st3" d="M316.234,220.648c0.146,0.781,0.288,1.495,0.424,2.143C316.522,222.142,316.38,221.43,316.234,220.648z"/>
		<path class="st3" d="M317.34,225.776c0,0.003,0.001,0.005,0.002,0.008C317.341,225.781,317.34,225.779,317.34,225.776z"/>
		<path class="st3" d="M316.927,224.034c0.031,0.136,0.058,0.256,0.088,0.383C316.986,224.291,316.958,224.17,316.927,224.034z"/>
		<path class="st3" d="M317.143,224.969c0.018,0.073,0.033,0.139,0.05,0.208C317.177,225.108,317.16,225.041,317.143,224.969z"/>
		<path class="st3" d="M316.694,222.965c0.043,0.205,0.084,0.388,0.125,0.578C316.778,223.353,316.738,223.17,316.694,222.965z"/>
		<path class="st3" d="M314.744,209.242c0.032,0.42,0.069,0.828,0.105,1.238C314.813,210.07,314.776,209.662,314.744,209.242z"/>
		<path class="st3" d="M315.562,216.591c0.053,0.365,0.107,0.724,0.162,1.074C315.669,217.316,315.616,216.956,315.562,216.591z"/>
		<path class="st3" d="M324.636,207.452c-1.108-0.903-2.336-1.196-3.556-1.127c-2.042,14.753-3.471,20.48-3.471,20.48
			s-0.05-0.178-0.13-0.483c0.166,4.672,0.303,8.87,0.399,12.315c0.943,0.181,1.94,0.156,2.869-0.297
			c3.113-1.521,5.964-13.762,7.007-17.717C328.793,216.67,329.113,211.094,324.636,207.452z"/>
		<path class="st3" d="M315.036,212.417c-0.042-0.395-0.084-0.79-0.123-1.197C314.952,211.627,314.994,212.022,315.036,212.417z"/>
		<path class="st3" d="M315.111,213.112c0.044,0.393,0.091,0.775,0.138,1.155C315.202,213.888,315.155,213.505,315.111,213.112z"/>
		<path class="st3" d="M315.329,214.904c0.05,0.381,0.1,0.753,0.152,1.119C315.429,215.658,315.378,215.284,315.329,214.904z"/>
	</g>
	<path class="st3" d="M193.146,235.637c0.067-0.443,0.253-1.723,0.481-3.639v-0.003c-0.288,2.419-0.509,3.82-0.509,3.82
		s-3.104-12.166-4.206-20.199c-0.221-1.604-1.805-4.407-3.583-9.265c-0.898,0.102-1.781,0.434-2.6,1.101
		c-4.477,3.643-4.154,9.219-3.117,13.172c1.04,3.955,3.895,16.195,7.01,17.717c2.451,1.195,5.379-0.553,6.515-1.352
		C193.14,236.541,193.143,236.093,193.146,235.637z"/>
	<path class="st3" d="M285.034,298.432c-1.095-3.412-1.653-6.928-1.88-10.301c-4.958,2.947-9.823,5.225-14.66,7.463
		c-4.128,1.908-19.203,2.369-24.331-0.014c-3.942-1.836-9.099-4.525-14.274-7.565c-0.223,3.408-0.782,6.967-1.889,10.416
		c-1.279,3.988-9.248,7.26-18.022,10.504c1.694,2.338,17.958,23.695,46.852,23.695c30.103,0,45.648-22.059,46.76-23.695
		C294.191,305.985,286.531,303.102,285.034,298.432z"/>
	<path class="st12" d="M314.48,200.217c0.139-7.023,0.877-15.129,0.066-20.259c-0.81-5.133-3.514-13.51-9.723-14.049
		c0,0-27.67,31.009-87.008,27.112c-5.756-0.379-10.869-1.287-15.435-2.596c-5.655,4.408-7.691,9.961-7.531,14.51
		c0.525,15.307-1.449,29.018-1.704,30.701c-0.018,2.496-0.027,4.887-0.027,7.105c0,15.766,9.712,25.961,24.117,36.949
		c8.035,6.131,19.59,12.473,26.927,15.889c5.128,2.383,20.203,1.922,24.331,0.014c7.752-3.586,15.576-7.277,23.734-13.66
		c13.367-10.455,25.797-22.295,25.797-35.596c0-3.354-0.217-10.758-0.546-20.02C316.862,223.969,314.228,213.122,314.48,200.217z"/>
	<path class="st10" d="M317.387,138.802c-6.847-8.339-15.399-12.586-24.86-11.428c-7.2-9.368-18.607-16.479-36.723-15.437
		c-28.467,1.639-76.843,20.563-75.744,65.382c1.065,25.181,8.359,34.712,8.852,38.296c1.103,8.033,4.206,20.199,4.206,20.199
		s2.293-14.533,1.731-30.879c-0.16-4.549,1.876-10.101,7.531-14.51c4.566,1.309,9.679,2.217,15.435,2.596
		c59.338,3.896,87.008-27.112,87.008-27.112c6.209,0.539,8.913,8.916,9.723,14.049c0.811,5.13,0.072,13.235-0.066,20.259
		c-0.284,14.6,3.129,26.588,3.129,26.588s1.616-6.475,3.867-23.396C322.763,193.737,335.538,160.906,317.387,138.802z"/>
	<path class="st7" d="M334.325,318.077l-30.665-9.244c0,0-15.57,23.799-46.83,23.799c-30.57,0-47.009-23.916-47.009-23.916
		l-31.952,9.455c-17.004,5.035-28.671,20.652-28.671,38.389v43.605h213.604v-43.761
		C362.802,338.745,351.234,323.169,334.325,318.077L334.325,318.077z"/>
	<path id="XMLID_23_" class="st2" d="M389.768,170.311c6.931-0.068,27.923,8.85,31.829,25.798
		c4.711,20.439-37.092,103.783-65.503,110.117c-2.877,0.648-5.758,0.98-8.578,1.005c-20.502,0.199-32.755-13.091-33.536-19.909
		c-0.779-6.821,8.05-19.924,15.355-21.896c5.787-1.319,11.666,2.339,15.192,5.012c3.681,2.791,8.089,5.757,17.097,1.033
		c9.383-4.92,31.859-43.183,31.593-53.009c-0.175-6.708-6.872-8.884-12.788-13.424c-2.825-2.171-7.075-7.269-7.24-13.887
		C373.051,186.012,381.748,170.388,389.768,170.311z"/>
	<path class="st10" d="M203.362,111.617l2.504,0.596l-2.504,0.599c-14.638,3.513-26.063,14.462-29.74,28.481l-0.627,2.394
		l-0.621-2.394c-3.674-14.018-15.105-24.968-29.748-28.481l-2.493-0.599l2.493-0.596c14.643-3.514,26.074-14.467,29.748-28.481
		l0.621-2.396l0.627,2.396C177.3,97.15,188.725,108.103,203.362,111.617L203.362,111.617z"/>
	<path class="st10" d="M252.413,87.384l1.128,0.269l-1.128,0.27c-6.597,1.583-11.746,6.518-13.403,12.836l-0.283,1.079l-0.28-1.079
		c-1.656-6.318-6.807-11.252-13.407-12.836l-1.124-0.27l1.124-0.269c6.599-1.584,11.751-6.52,13.407-12.836l0.28-1.08l0.283,1.08
		C240.667,80.864,245.816,85.8,252.413,87.384L252.413,87.384z"/>
	<path class="st2" d="M412.136,330.294l1.75,0.417l-1.75,0.418c-10.23,2.455-18.214,10.107-20.784,19.904l-0.438,1.673l-0.434-1.673
		c-2.567-9.797-10.556-17.449-20.79-19.904l-1.742-0.418l1.742-0.417c10.233-2.456,18.222-10.111,20.79-19.905l0.434-1.674
		l0.438,1.674C393.921,320.184,401.906,327.838,412.136,330.294L412.136,330.294z"/>
	<path class="st3" d="M180.957,288.374l1.107,0.264l-1.107,0.265c-6.472,1.553-11.524,6.395-13.15,12.593l-0.277,1.058l-0.275-1.058
		c-1.624-6.198-6.679-11.04-13.153-12.593L153,288.638l1.102-0.264c6.474-1.554,11.529-6.397,13.153-12.593l0.275-1.059l0.277,1.059
		C169.433,281.977,174.485,286.82,180.957,288.374L180.957,288.374z"/>
	<path class="st3" d="M151.514,320.88l1.486,0.354l-1.486,0.355c-8.688,2.085-15.469,8.584-17.651,16.904l-0.372,1.421l-0.369-1.421
		c-2.18-8.32-8.965-14.819-17.656-16.904l-1.48-0.355l1.48-0.354c8.691-2.086,15.475-8.586,17.656-16.904l0.369-1.422l0.372,1.422
		C136.045,312.293,142.826,318.794,151.514,320.88L151.514,320.88z"/>
</g>
</svg>
